<?xml version="1.0" encoding="UTF-8"?>
<svg width="13px" height="12px" viewBox="0 0 13 12" version="1.1" xmlns="http://www.w3.org/2000/svg" xmlns:xlink="http://www.w3.org/1999/xlink">
    <title>形状@1x</title>
    <defs>
        <linearGradient x1="50%" y1="100%" x2="50%" y2="3.061617e-15%" id="linearGradient-1">
            <stop stop-color="#6584FF" offset="0%"></stop>
            <stop stop-color="#8ACDFF" offset="100%"></stop>
        </linearGradient>
    </defs>
    <g id="数据大屏" stroke="none" stroke-width="1" fill="none" fill-rule="evenodd">
        <g id="画板" transform="translate(-268.000000, -35.000000)" fill="url(#linearGradient-1)" fill-rule="nonzero">
            <path d="M280.5,39 L280,39 L280,43.75 C280,44.7164983 279.216498,45.5 278.25,45.5 C277.283502,45.5 276.5,44.7164983 276.5,43.75 L276.5,38.5 C276.5,38.2238576 276.276142,38 276,38 L276,46 L277,46 L277,47 L268,47 L268,46 L269,46 L269,36 C269,35.7347835 269.105357,35.4804296 269.292893,35.2928932 C269.48043,35.1053568 269.734784,35 270,35 L275,35 C275.265216,35 275.51957,35.1053568 275.707107,35.2928932 C275.894643,35.4804296 276,35.7347835 276,36 L276,37 C276.828427,37 277.5,37.6715729 277.5,38.5 L277.5,43.75 C277.5,44.1642136 277.835786,44.5 278.25,44.5 C278.664214,44.5 279,44.1642136 279,43.75 L279,39 L278.5,39 C278.223858,39 278,38.7761424 278,38.5 L278,37.5 C278,37.2238576 278.223858,37 278.5,37 L278.5,36.75 C278.5,36.6119288 278.611929,36.5 278.75,36.5 C278.888071,36.5 279,36.6119288 279,36.75 L279,37 L280,37 L280,36.75 C280,36.6119288 280.111929,36.5 280.25,36.5 C280.388071,36.5 280.5,36.6119288 280.5,36.75 L280.5,37 C280.776142,37 281,37.2238576 281,37.5 L281,38.5 C281,38.7761424 280.776142,39 280.5,39 Z M272,44.5 L274,42.5 L272.5,42.5 L272.5,41 L271,43 L272.5,43 L272,44.5 Z M275,36.5 L270,36.5 L270,39.5 L275,39.5 L275,36.5 Z M280,37.5 L279,37.5 C278.723858,37.5 278.5,37.7238576 278.5,38 C278.5,38.2761424 278.723858,38.5 279,38.5 L280,38.5 C280.276142,38.5 280.5,38.2761424 280.5,38 C280.5,37.7238576 280.276142,37.5 280,37.5 Z" id="形状"></path>
        </g>
    </g>
</svg>