<?xml version="1.0" encoding="UTF-8"?>
<svg width="13px" height="12px" viewBox="0 0 13 12" version="1.1" xmlns="http://www.w3.org/2000/svg" xmlns:xlink="http://www.w3.org/1999/xlink">
    <title>形状@1x</title>
    <defs>
        <linearGradient x1="50%" y1="0%" x2="50%" y2="100%" id="linearGradient-1">
            <stop stop-color="#B4EC51" offset="0%"></stop>
            <stop stop-color="#429321" offset="100%"></stop>
        </linearGradient>
    </defs>
    <g id="数据大屏" stroke="none" stroke-width="1" fill="none" fill-rule="evenodd">
        <g id="画板" transform="translate(-112.000000, -35.000000)" fill="url(#linearGradient-1)" fill-rule="nonzero">
            <path d="M117.966725,45.3015969 L117.961406,45.3015969 C117.446751,45.4022961 116.980584,45.6722937 116.637138,46.0685953 C116.440776,46.2675505 116.143494,46.3277929 115.885169,46.2209775 L114.381233,45.383222 C114.143177,45.215767 114.058406,44.9023496 114.179598,44.6377283 C114.25564,44.4339466 114.296154,44.2186285 114.299376,44.0011451 C114.299376,43.5525539 114.120865,43.1219989 113.80292,42.8047479 C113.484901,42.4873867 113.053955,42.3091707 112.604673,42.3092165 L112.539234,42.3092165 C112.442547,42.306351 112.351547,42.2628653 112.288578,42.1894381 C112.201679,42.0852651 112.145121,41.9591889 112.125097,41.8250156 C112.052827,41.4388803 112.011,41.0476649 112,40.6549789 C112.010868,40.2607274 112.052721,39.8676321 112.125328,39.4798551 C112.169031,39.2567157 112.305227,39.0012037 112.545015,39.0012037 L112.604904,39.0012037 C113.055126,39.0011881 113.486869,38.8221688 113.805001,38.5035913 C114.123081,38.1853507 114.301172,37.7534385 114.299839,37.3034943 C114.28898,37.0807243 114.239126,36.861586 114.152544,36.6560432 C114.03866,36.3902283 114.127473,36.0809799 114.365046,35.916099 L115.950608,35.0462022 C116.208843,34.947744 116.500802,35.0095183 116.697027,35.204134 C117.050424,35.5846374 117.516364,35.8419983 118.026614,35.9385286 C118.53363,35.843843 118.9974,35.5903769 119.350883,35.2147707 C119.55126,35.0229907 119.845048,34.9656243 120.102851,35.0679381 L121.634073,35.9165615 C121.747377,35.9970304 121.828308,36.1144966 121.862993,36.2486115 C121.901721,36.3836777 121.892071,36.528028 121.835708,36.6567369 C121.748988,36.8622247 121.699204,37.0814012 121.688644,37.304188 C121.688644,37.7527792 121.867155,38.183103 122.1851,38.5005852 C122.50312,38.8179464 122.934065,38.9961625 123.383347,38.9961166 L123.448786,38.9961166 C123.644871,38.9961166 123.808353,39.186421 123.862923,39.4803175 C123.935299,39.8664759 123.977152,40.2572589 123.988251,40.650123 C123.975999,41.0446919 123.932233,41.4376506 123.857374,41.8252468 C123.813902,42.0645725 123.666838,42.3038982 123.443468,42.3038982 L123.388897,42.3038982 C123.216166,42.3038982 122.5227,42.2058556 121.973753,42.3094478 C121.804954,42.3411266 121.560772,42.4627549 121.240746,42.6743327 L120.464499,42.6743327 C120.341845,42.6743327 120.224215,42.7230566 120.137486,42.8097856 C120.050757,42.8965146 120.002034,43.0141444 120.002034,43.1367978 L120.002034,46.2212088 C119.745597,46.3123144 119.522688,46.2760109 119.329147,46.085244 C119.318279,46.0743761 118.610014,45.3018282 117.966725,45.3018282 L117.966725,45.3015969 Z M115.242112,40.6445734 C115.242112,42.1466601 116.462094,43.3645619 117.966725,43.3645619 C119.471586,43.3645619 120.691338,42.14666 120.691338,40.6443422 C120.691338,39.1420243 119.471586,37.9241225 117.966725,37.9241225 C116.462094,37.9241225 115.242112,39.1420243 115.242112,40.6443422 L115.242112,40.6445734 Z M117.966725,39.0120716 C118.869688,39.0120716 119.601539,39.7427665 119.601539,40.6445734 C119.601539,41.5456867 118.869688,42.2766127 117.966725,42.2766127 C117.063993,42.2766127 116.331911,41.5459179 116.331911,40.6443422 C116.331911,39.7429977 117.063993,39.0123029 117.966725,39.0123029 L117.966725,39.0120716 Z M120.893204,44.456442 L123.899227,44.456442 C124.218492,44.456442 124.477308,44.7152578 124.477308,45.0345233 C124.477308,45.3537889 124.218492,45.6126047 123.899227,45.6126047 L120.893204,45.6126047 C120.573938,45.6126047 120.315122,45.3537889 120.315122,45.0345233 C120.315122,44.7152578 120.573938,44.456442 120.893204,44.456442 L120.893204,44.456442 Z M120.893204,45.8438373 L123.899227,45.8438373 C124.105756,45.8438373 124.296596,45.9540189 124.39986,46.1328779 C124.503124,46.3117369 124.503124,46.5321003 124.39986,46.7109593 C124.296596,46.8898183 124.105756,47 123.899227,47 L120.893204,47 C120.573938,47 120.315122,46.7411842 120.315122,46.4219186 C120.315122,46.1026531 120.573938,45.8438373 120.893204,45.8438373 L120.893204,45.8438373 Z M120.893204,43.0690467 L123.899227,43.0690467 C124.218492,43.0690467 124.477308,43.3278625 124.477308,43.6471281 C124.477308,43.9663936 124.218492,44.2252094 123.899227,44.2252094 L120.893204,44.2252094 C120.573938,44.2252094 120.315122,43.9663936 120.315122,43.6471281 C120.315122,43.3278625 120.573938,43.0690467 120.893204,43.0690467 L120.893204,43.0690467 Z" id="形状"></path>
        </g>
    </g>
</svg>