<?xml version="1.0" encoding="UTF-8"?>
<svg width="12px" height="12px" viewBox="0 0 12 12" version="1.1" xmlns="http://www.w3.org/2000/svg" xmlns:xlink="http://www.w3.org/1999/xlink">
    <title>围栏管理@1x</title>
    <defs>
        <linearGradient x1="50%" y1="0%" x2="50%" y2="100%" id="linearGradient-1">
            <stop stop-color="#4DEFCA" offset="0%"></stop>
            <stop stop-color="#32CDD3" offset="100%"></stop>
        </linearGradient>
    </defs>
    <g id="数据大屏" stroke="none" stroke-width="1" fill="none" fill-rule="evenodd">
        <g id="画板" transform="translate(-51.000000, -35.000000)" fill="url(#linearGradient-1)" fill-rule="nonzero">
            <g id="围栏管理" transform="translate(51.000000, 35.000000)">
                <path d="M10.5,0 C11.3284271,0 12,0.671572875 12,1.5 C12,1.72377279 11.9509997,1.93610093 11.8631434,2.12683998 C11.6886246,2.52859592 11.3379667,2.84508867 10.8887062,2.96234805 L10.8887062,2.96234805 L10.8885299,9.05080676 C11.5286139,9.22198104 12,9.80594146 12,10.5 C12,11.3284271 11.3284271,12 10.5,12 C10.4391726,12 10.3791909,11.9963794 10.3202586,11.9893419 C9.73700479,11.9407211 9.22531335,11.543226 9.04626669,10.9639896 L9.04626669,10.9639896 L2.96023007,10.9639896 C2.76831311,11.5923501 2.1860108,12.0068908 1.54591207,11.9999133 L1.5,12 C0.671572875,12 0,11.3284271 0,10.5 L0.001,10.531 L0.000354335295,10.5183454 C-0.00396813438,10.3214062 0.0313745948,10.1310421 0.0998850008,9.95597043 C0.103720308,9.95077357 0.106101101,9.94476416 0.108519453,9.93877394 C0.137430026,9.86333755 0.173821018,9.79162484 0.215751788,9.72346261 C0.223575651,9.71160598 0.231094247,9.69958675 0.238776768,9.68768326 C0.249681574,9.67060676 0.261346359,9.65361319 0.273364275,9.63687512 C0.289171405,9.61402888 0.305525882,9.59213689 0.322452299,9.5707177 C0.32732726,9.56631846 0.33174126,9.56092534 0.336193974,9.55556366 C0.523458381,9.32324516 0.778879388,9.14910692 1.07177254,9.06201454 L1.07123073,2.96234805 C0.752925359,2.86488182 0.489495018,2.66718376 0.308061127,2.41250633 C0.115120002,2.15909492 0,1.84299132 0,1.5 C0,0.671572875 0.671572875,0 1.5,0 C1.67111651,0 1.83554079,0.0286528863 1.98873672,0.0814225577 C1.99981244,0.0858251562 2.01048362,0.0895107579 2.02110203,0.0933176295 C2.04214357,0.100776942 2.06350932,0.109253034 2.08462764,0.118199115 C2.35303302,0.228610404 2.58345856,0.417988073 2.74385108,0.661879192 C2.83094115,0.790286744 2.89853385,0.933512532 2.9423598,1.08677123 L9.01966106,1.08665152 C9.20610555,0.386891243 9.87634545,-0.0712474189 10.5960443,0.00912372914 L10.476,0.001 Z M11.1044316,10.1732844 C10.9423008,9.89354336 10.6132592,9.75659093 10.3005264,9.838686 C9.98779348,9.92078107 9.76844433,10.2016908 9.76461833,10.5249968 C9.76438898,10.8166129 9.94047733,11.0794314 10.2102628,11.1901375 C10.4824043,11.2986958 10.7929888,11.2360569 11.0017801,11.0305037 L11.0017801,11.0305037 L11.0639206,10.9560201 C11.2292122,10.7289482 11.2485479,10.4219431 11.1044316,10.1732844 Z M1.44564179,9.80621368 L1.34469157,9.81882087 C1.0074845,9.88528957 0.764603028,10.1813018 0.765264685,10.5249968 C0.765036463,10.816613 0.941124819,11.0794314 1.21091025,11.1901375 C1.48101449,11.2975622 1.78909361,11.2349021 1.99577618,11.0305037 C2.19513821,10.8236333 2.25497794,10.5192312 2.14875852,10.2522892 C2.01894449,9.93405183 1.68189865,9.75235217 1.34469157,9.81882087 Z M2,5.262 L2,6.611 L5.388,10 L6.733,10 L2,5.262 Z M2.91968895,2.0008293 C2.76371613,2.42634385 2.42634385,2.76371613 2.00070296,2.91439849 L2,2.931 L2.15540992,2.87587977 L9.11278075,9.839902 C9.11278075,9.89134647 9.08514944,9.94555407 9.05838161,10.0007439 L9.08524952,10.0002925 C9.23587523,9.57385032 9.57385032,9.23587523 10.0002925,9.08524952 L10,9.063 L9.77126996,9.14150436 L2.83385336,2.23069338 C2.86950344,2.15684288 2.8982304,2.07989157 2.91968895,2.0008293 Z M6.435,2 L5.144,2 L10,6.856 L10,5.579 L6.435,2 Z M10.4420058,0.767003572 L10.340742,0.780099809 C10.0025766,0.84838322 9.76070587,1.1474189 9.76461856,1.4923873 L9.76461856,1.4923873 C9.75590062,1.78455796 9.93261436,2.04830981 10.2036114,2.15752791 C10.4740946,2.27144378 10.7865751,2.21104838 10.9951287,2.00454557 C11.1983791,1.79428765 11.2583737,1.48388112 11.148111,1.21302824 C11.0178607,0.89357032 10.6789075,0.711816397 10.340742,0.780099809 Z M1.43062196,0.754131271 L1.32826127,0.767322092 C0.986318833,0.836701717 0.745095066,1.14373936 0.75861464,1.4923873 C0.757624943,1.78620865 0.937298996,2.0504352 1.21091025,2.15752791 C1.47935812,2.27031717 1.78933882,2.20989721 1.99577618,2.00454557 C2.19770675,1.79302244 2.25278859,1.48089198 2.1354557,1.21302824 C2.01201996,0.886682136 1.6702037,0.697942468 1.32826127,0.767322092 Z" id="形状"></path>
            </g>
        </g>
    </g>
</svg>