<?xml version="1.0" encoding="UTF-8"?>
<svg width="11px" height="12px" viewBox="0 0 11 12" version="1.1" xmlns="http://www.w3.org/2000/svg" xmlns:xlink="http://www.w3.org/1999/xlink">
    <title>物流园区@1x</title>
    <defs>
        <linearGradient x1="50%" y1="0%" x2="50%" y2="100%" id="linearGradient-1">
            <stop stop-color="#38E5EB" offset="0%"></stop>
            <stop stop-color="#2490C3" offset="100%"></stop>
        </linearGradient>
    </defs>
    <g id="数据大屏" stroke="none" stroke-width="1" fill="none" fill-rule="evenodd">
        <g id="画板" transform="translate(-34.000000, -35.000000)" fill="url(#linearGradient-1)" fill-rule="nonzero">
            <g id="物流园区" transform="translate(34.000000, 35.000000)">
                <path d="M9.42857143,11.1428571 L9.42857143,1.99285714 C9.42857143,1.875 9.33214286,1.77857143 9.21428571,1.77857143 L6.85714286,1.77857143 L6.85714286,0.214285714 C6.85714286,0.0964285714 6.76071429,0 6.64285714,0 L1.07142857,0 C0.953571429,0 0.857142857,0.0964285714 0.857142857,0.214285714 L0.857142857,11.1428571 L0,11.1428571 L0,12 L10.2857143,12 L10.2857143,11.1428571 L9.42857143,11.1428571 Z M3.42857143,9.42857143 L2.57142857,9.42857143 L2.57142857,8.57142857 L3.42857143,8.57142857 L3.42857143,9.42857143 Z M3.42857143,7.71428571 L2.57142857,7.71428571 L2.57142857,6.85714286 L3.42857143,6.85714286 L3.42857143,7.71428571 Z M3.42857143,6 L2.57142857,6 L2.57142857,5.14285714 L3.42857143,5.14285714 L3.42857143,6 Z M3.42857143,4.28571429 L2.57142857,4.28571429 L2.57142857,3.42857143 L3.42857143,3.42857143 L3.42857143,4.28571429 Z M3.42857143,2.57142857 L2.57142857,2.57142857 L2.57142857,1.71428571 L3.42857143,1.71428571 L3.42857143,2.57142857 Z M5.14285714,9.42857143 L4.28571429,9.42857143 L4.28571429,8.57142857 L5.14285714,8.57142857 L5.14285714,9.42857143 Z M5.14285714,7.71428571 L4.28571429,7.71428571 L4.28571429,6.85714286 L5.14285714,6.85714286 L5.14285714,7.71428571 Z M5.14285714,6 L4.28571429,6 L4.28571429,5.14285714 L5.14285714,5.14285714 L5.14285714,6 Z M5.14285714,4.28571429 L4.28571429,4.28571429 L4.28571429,3.42857143 L5.14285714,3.42857143 L5.14285714,4.28571429 Z M5.14285714,2.57142857 L4.28571429,2.57142857 L4.28571429,1.71428571 L5.14285714,1.71428571 L5.14285714,2.57142857 Z M7.71428571,9.42857143 L6.85714286,9.42857143 L6.85714286,8.57142857 L7.71428571,8.57142857 L7.71428571,9.42857143 Z M7.71428571,7.71428571 L6.85714286,7.71428571 L6.85714286,6.85714286 L7.71428571,6.85714286 L7.71428571,7.71428571 Z M7.71428571,6 L6.85714286,6 L6.85714286,5.14285714 L7.71428571,5.14285714 L7.71428571,6 Z M7.71428571,4.28571429 L6.85714286,4.28571429 L6.85714286,3.42857143 L7.71428571,3.42857143 L7.71428571,4.28571429 Z" id="形状"></path>
            </g>
        </g>
    </g>
</svg>