<?xml version="1.0" encoding="UTF-8"?>
<svg width="14px" height="12px" viewBox="0 0 14 12" version="1.1" xmlns="http://www.w3.org/2000/svg" xmlns:xlink="http://www.w3.org/1999/xlink">
    <title>形状@1x</title>
    <defs>
        <linearGradient x1="50%" y1="0%" x2="50%" y2="100%" id="linearGradient-1">
            <stop stop-color="#F1BC37" offset="0%"></stop>
            <stop stop-color="#DB951F" offset="100%"></stop>
        </linearGradient>
    </defs>
    <g id="数据大屏" stroke="none" stroke-width="1" fill="none" fill-rule="evenodd">
        <g id="画板" transform="translate(-191.000000, -35.000000)" fill="url(#linearGradient-1)" fill-rule="nonzero">
            <path d="M201.446429,41 C203.006696,41 204.178571,41.8839286 204.178571,43.4441964 C204.178571,45.0044643 201.932589,47 201.446429,47 C200.887946,47 198.714286,45.0044643 198.714286,43.4441964 C198.714286,41.8839286 199.886161,41 201.446429,41 Z M201.079603,35 C201.184794,35 201.266609,35.0584396 201.301673,35.1519429 L201.301673,35.1519429 L202.984733,39.3595911 C203.043172,39.511534 202.926293,39.6751647 202.762662,39.6751647 L202.762662,39.6751647 L201.687374,39.6751647 L201.688026,40.792488 C201.608715,40.787987 201.528159,40.7857143 201.446429,40.7857143 C200.290988,40.7857143 199.37034,41.2399419 198.882484,42.022618 L198.882275,41.5452306 L195.142144,41.5452306 L195.142144,42.4802635 L198.66093,42.4801372 C198.558815,42.7627502 198.503155,43.0756565 198.50013,43.4149313 L195.142144,43.4152965 L195.142144,44.3503294 L198.705113,44.350517 C198.9658,44.9960097 199.442975,45.6821213 199.948039,46.2209058 L192.570803,46.2203953 C192.442236,46.2203953 192.337045,46.1152041 192.337045,45.9866371 L192.337045,45.9866371 L192.337045,39.6751647 L191.226693,39.6751647 C191.063063,39.6751647 190.957871,39.499846 191.016311,39.3479032 L191.016311,39.3479032 L192.769498,35.1402549 C192.804561,35.0584396 192.886377,35 192.97988,35 L192.97988,35 Z M201.446429,42.1517857 C200.706473,42.1517857 200.107143,42.7511161 200.107143,43.4910714 C200.107143,44.2310268 200.706473,44.8303571 201.446429,44.8303571 C202.186384,44.8303571 202.785714,44.2310268 202.785714,43.4910714 C202.785714,42.7511161 202.186384,42.1517857 201.446429,42.1517857 Z M200.970982,42.667574 C201.265189,42.4977134 201.627668,42.4977134 201.921875,42.667574 C202.216082,42.8374347 202.397321,43.1513501 202.397321,43.4910714 C202.397321,44.0162351 201.971592,44.4419643 201.446429,44.4419643 C200.921265,44.4419643 200.495536,44.0162351 200.495536,43.4910714 C200.495536,43.1513501 200.676775,42.8374347 200.970982,42.667574 Z M198.882275,39.6751647 L195.142144,39.6751647 L195.142144,40.6101977 L198.882275,40.6101977 L198.882275,39.6751647 Z" id="形状"></path>
        </g>
    </g>
</svg>