<?xml version="1.0" encoding="UTF-8"?>
<svg width="12px" height="12px" viewBox="0 0 12 12" version="1.1" xmlns="http://www.w3.org/2000/svg" xmlns:xlink="http://www.w3.org/1999/xlink">
    <title>编组@1x</title>
    <defs>
        <linearGradient x1="50%" y1="0%" x2="50%" y2="100%" id="linearGradient-1">
            <stop stop-color="#AAA7FF" offset="0%"></stop>
            <stop stop-color="#5241FA" offset="100%"></stop>
        </linearGradient>
    </defs>
    <g id="数据大屏" stroke="none" stroke-width="1" fill="none" fill-rule="evenodd">
        <g id="画板" transform="translate(-143.000000, -35.000000)">
            <g id="编组" transform="translate(143.000000, 35.000000)">
                <g id="临-时" transform="translate(9.000000, 0.000000)"></g>
                <path d="M8,3.26843976 C8,1.46325523 6.51376981,0 4.68028769,0 C4.59680978,0 4.5148815,0.00626589634 4.43288585,0.0122622918 L1.50037899,0.0122622918 L1.50037899,0.0184608129 L0,0.0184608129 L0,12 L1.68424599,12 L1.68424599,6.52643636 L4.42109518,6.52643636 C4.54957975,6.54119153 4.54803012,6.53694689 4.68035507,6.53694689 C6.51383719,6.53687952 8,5.07375903 8,3.26843976 Z M4.42102781,4.84212299 L1.68424599,4.84212299 L1.68424599,1.68411124 L4.42109518,1.68411124 C5.22110866,1.72163924 5.95448803,2.45319948 5.95448803,3.24997895 C5.95448803,4.04675841 5.22104128,4.80425811 4.42102781,4.84212299 Z M9.84809833,9.05011033 C9.7948719,8.94365746 9.64833078,8.82231468 9.64833078,8.82231468 L9.04431185,7.20530917 C8.91892654,6.89881925 8.54977766,6.73718607 8.38875086,6.73718607 L5.21645556,6.73718607 C5.05529401,6.73718607 4.68641463,6.89881925 4.56096195,7.20530917 L3.95680827,8.82231468 C3.95680827,8.82231468 3.81060402,8.94365746 3.75690596,9.05011033 C3.70327528,9.15615894 3.64486095,9.25109064 3.64486095,9.9678957 C3.64486095,10.667318 3.78513618,10.9156631 3.95276575,11.0019707 L4.0853602,11.076892 L4.0853602,11.7261871 C4.0853602,11.9365999 4.13528525,11.9991915 4.33532231,11.9991915 L4.78390658,11.9991915 C4.98367414,11.9991915 5.11835722,12 5.11835722,11.7895872 L5.11835722,11.1580791 L8.4868492,11.1580791 L8.4868492,11.7895872 C8.4868492,12 8.62133016,11.9991915 8.82109771,11.9991915 L9.26981674,11.9991915 C9.46971905,11.9991915 9.51964409,11.9365999 9.51964409,11.7261871 L9.51964409,11.076892 L9.65223854,11.0019707 C9.82000286,10.9157304 9.96014334,10.6674527 9.9604129,9.9678957 C9.96048022,9.25109064 9.90199852,9.15615894 9.84809833,9.05011033 Z M4.76133588,8.63245128 C4.78639947,8.54088834 4.95423116,7.82394853 5.02854604,7.57546868 C5.0591344,7.48970001 5.25782395,7.23407839 5.48959474,7.24863144 L8.11567906,7.24863144 C8.3473151,7.23401102 8.54620677,7.48963264 8.57625613,7.57546868 C8.65090788,7.82394853 8.81847008,8.54088834 8.84387054,8.63245128 C8.87378514,8.74106015 8.77508043,8.73156024 8.77508043,8.73156024 L4.83019337,8.73156024 C4.83019337,8.73149287 4.73121915,8.74106015 4.76133588,8.63245128 Z M4.8262856,10.3877781 C4.5600187,10.3877781 4.34354208,10.1707625 4.34354208,9.90530411 C4.34354208,9.63930671 4.5600187,9.4228301 4.8262856,9.4228301 C5.09208088,9.4228301 5.30849018,9.63930671 5.30849018,9.90530411 C5.30862487,10.1708299 5.09214826,10.3877781 4.8262856,10.3877781 Z M8.79387812,9.4228301 C9.05960602,9.4228301 9.27615001,9.63930671 9.27615001,9.90530411 C9.27615001,10.1708299 9.05960602,10.3877781 8.79387812,10.3877781 C8.52788071,10.3877781 8.3111346,10.1707625 8.3111346,9.90530411 C8.3111346,9.63930671 8.52788071,9.4228301 8.79387812,9.4228301 Z M11.6186152,3.446084 L11.6186152,4.07604994 L12,4.07604994 L12,4.38933031 L11.6186152,4.38933031 L11.6186152,6.09875142 C11.6186152,6.30987514 11.5641317,6.40181612 11.4347333,6.44948922 C11.2985244,6.50056754 11.0737798,6.5107832 10.7366629,6.50737798 C10.7196368,6.41884222 10.6719637,6.27582293 10.6242906,6.18728717 C10.8728717,6.19409762 11.1248581,6.19409762 11.199773,6.19409762 C11.2678774,6.1906924 11.2951192,6.17026107 11.2951192,6.09875142 L11.2951192,6.09875142 L11.2951192,4.38933031 L10.2395006,4.38933031 L10.2395006,4.07604994 L11.2951192,4.07604994 L11.2951192,3.446084 L11.6186152,3.446084 Z M10.0998865,3.69807037 L10.0998865,5.92167991 L9.29625426,5.92167991 L9.29625426,6.19409762 L9,6.19409762 L9,3.69807037 L10.0998865,3.69807037 Z M9.80363224,4.93416572 L9.29625426,4.93416572 L9.29625426,5.63904654 L9.80363224,5.63904654 L9.80363224,4.93416572 Z M10.5800227,4.63791146 C10.7570942,4.8830874 10.9886493,5.21679909 11.1010216,5.41430193 L11.1010216,5.41430193 L10.8217934,5.57775255 C10.7162316,5.37684449 10.4948922,5.02951192 10.3212259,4.77412032 L10.3212259,4.77412032 Z M9.80363224,3.98410897 L9.29625426,3.98410897 L9.29625426,4.65493757 L9.80363224,4.65493757 L9.80363224,3.98410897 Z M11.8808173,1.58342792 L11.8808173,3.12599319 L11.5607264,3.12599319 L11.5607264,2.96935301 L10.4880817,2.96935301 L10.4880817,3.1430193 L10.1816118,3.1430193 L10.1816118,1.58342792 L11.8808173,1.58342792 Z M9.88195233,0.0578887628 L9.88195233,3.1123723 L9.56867196,3.1123723 L9.56867196,0.0578887628 L9.88195233,0.0578887628 Z M9.29965948,0.412031782 L9.29965948,2.72758229 L9.00340522,2.72758229 L9.00340522,0.412031782 L9.29965948,0.412031782 Z M10.8830874,1.88649262 L10.4880817,1.88649262 L10.4880817,2.67650397 L10.8830874,2.67650397 L10.8830874,1.88649262 Z M11.5607264,1.88649262 L11.1725312,1.88649262 L11.1725312,2.67650397 L11.5607264,2.67650397 L11.5607264,1.88649262 Z M10.9137344,0.786606129 C11.1180477,0.936435868 11.3666288,1.14074915 11.4960272,1.26674234 L11.4960272,1.26674234 L11.2814983,1.49489217 C11.1589103,1.36208854 10.906924,1.13393871 10.7060159,0.970488082 L10.7060159,0.970488082 Z M10.5085131,0 L10.8183882,0.0612939841 C10.7911464,0.173666288 10.7570942,0.289443814 10.7162316,0.398410897 L10.7162316,0.398410897 L11.9591373,0.398410897 L11.9591373,0.704880817 L10.5970488,0.704880817 C10.4812713,0.96708286 10.3416572,1.19523269 10.1884222,1.36889898 C10.1271283,1.32122588 9.99091941,1.23269012 9.9091941,1.19182747 C10.1884222,0.912599319 10.3961407,0.466515323 10.5085131,0 L10.5085131,0 Z" id="形状" fill="url(#linearGradient-1)" fill-rule="nonzero"></path>
            </g>
        </g>
    </g>
</svg>