<?xml version="1.0" encoding="UTF-8"?>
<svg width="16px" height="19px" viewBox="0 0 16 19" version="1.1" xmlns="http://www.w3.org/2000/svg" xmlns:xlink="http://www.w3.org/1999/xlink">
    <title>末端网点</title>
    <defs>
        <linearGradient x1="50%" y1="0%" x2="50%" y2="100%" id="linearGradient-1">
            <stop stop-color="#F1BC37" offset="0%"></stop>
            <stop stop-color="#DB951F" offset="100%"></stop>
        </linearGradient>
    </defs>
    <g id="数据大屏" stroke="none" stroke-width="1" fill="none" fill-rule="evenodd">
        <g id="图标" transform="translate(-223.000000, -154.000000)">
            <g id="编组-3" transform="translate(223.000000, 154.000000)">
                <path d="M8,19 C13.3333333,14.6121853 16,10.9455187 16,8 C16,3.581722 12.418278,0 8,0 C3.581722,0 0,3.581722 0,8 C0,10.9455187 2.66666667,14.6121853 8,19 Z" id="椭圆形" fill="url(#linearGradient-1)"></path>
                <path d="M10.9268293,8.05284553 C12.1107724,8.05284553 13,8.72357724 13,9.90752033 C13,11.0914634 11.2957317,12.6056911 10.9268293,12.6056911 C10.5030488,12.6056911 8.85365854,11.0914634 8.85365854,9.90752033 C8.85365854,8.72357724 9.74288618,8.05284553 10.9268293,8.05284553 Z M10.6484792,3.5 C10.7282991,3.5 10.7903812,3.54434438 10.8169878,3.61529539 L10.8169878,3.61529539 L12.094106,6.80809081 C12.1384504,6.9233862 12.0497616,7.04755046 11.9255973,7.04755046 L11.9255973,7.04755046 L11.1096607,7.04755046 L11.1098117,7.89536434 C11.0497409,7.89196191 10.9887291,7.8902439 10.9268293,7.8902439 C10.0496105,7.8902439 9.35074189,8.23527823 8.98070416,8.82975384 L8.98113046,8.46657065 L6.14309009,8.46657065 L6.14309009,9.17608074 L8.81316887,9.17599251 C8.73569064,9.39042355 8.69345743,9.62783742 8.69115626,9.88525668 L6.14309009,9.88559083 L6.14309009,10.5951009 L8.84691051,10.5957697 C9.04476371,11.0854075 9.40671104,11.6057925 9.78980819,12.0144746 L4.19193733,12.0141211 C4.0943797,12.0141211 4.01455981,11.9343012 4.01455981,11.8367436 L4.01455981,11.8367436 L4.01455981,7.04755046 L3.17201658,7.04755046 C3.04785231,7.04755046 2.96803242,6.91451732 3.0123768,6.79922193 L3.0123768,6.79922193 L4.34270823,3.60642651 C4.36931486,3.54434438 4.43139699,3.5 4.502348,3.5 L4.502348,3.5 Z M10.9268293,8.92682927 C10.3653455,8.92682927 9.91056911,9.38160569 9.91056911,9.94308943 C9.91056911,10.5045732 10.3653455,10.9593496 10.9268293,10.9593496 C11.488313,10.9593496 11.9430894,10.5045732 11.9430894,9.94308943 C11.9430894,9.38160569 11.488313,8.92682927 10.9268293,8.92682927 Z M10.5660569,9.31821336 C10.7893036,9.18932181 11.0643549,9.18932181 11.2876016,9.31821336 C11.5108483,9.44710492 11.648374,9.68530633 11.648374,9.94308943 C11.648374,10.3415876 11.3253274,10.6646341 10.9268293,10.6646341 C10.5283311,10.6646341 10.2052846,10.3415876 10.2052846,9.94308943 C10.2052846,9.68530633 10.3428102,9.44710492 10.5660569,9.31821336 Z M8.98113046,7.04755046 L6.14309009,7.04755046 L6.14309009,7.75706055 L8.98113046,7.75706055 L8.98113046,7.04755046 Z" id="形状" fill="#FFFFFF" fill-rule="nonzero"></path>
            </g>
        </g>
    </g>
</svg>