<?xml version="1.0" encoding="UTF-8"?>
<svg width="14px" height="19px" viewBox="0 0 14 19" version="1.1" xmlns="http://www.w3.org/2000/svg" xmlns:xlink="http://www.w3.org/1999/xlink">
    <title>充电桩</title>
    <defs>
        <linearGradient x1="50%" y1="100%" x2="50%" y2="3.061617e-15%" id="linearGradient-1">
            <stop stop-color="#6584FF" offset="0%"></stop>
            <stop stop-color="#8ACDFF" offset="100%"></stop>
        </linearGradient>
    </defs>
    <g id="数据大屏" stroke="none" stroke-width="1" fill="none" fill-rule="evenodd">
        <g id="图标" transform="translate(-302.000000, -154.000000)">
            <g id="编组-4" transform="translate(302.000000, 154.000000)">
                <path d="M7,0 C10.8659932,0 14,3.13400675 14,7 C14,10.6977434 11.1328443,13.7258266 7.50039243,13.9823903 L7.5,18.5 C7.5,18.7761424 7.27614237,19 7,19 C6.72385763,19 6.5,18.7761424 6.5,18.5 L6.50061334,13.9824612 C2.86768497,13.7263856 0,10.6980846 0,7 C0,3.13400675 3.13400675,0 7,0 Z" id="形状结合" fill="url(#linearGradient-1)"></path>
                <polygon id="路径" fill="#FFFFFF" points="5.66666666 12 11 6.28571428 7 6.28571428 7 2 3 7.71428572 7 7.71428572"></polygon>
            </g>
        </g>
    </g>
</svg>