<?xml version="1.0" encoding="UTF-8"?>
<svg width="16px" height="19px" viewBox="0 0 16 19" version="1.1" xmlns="http://www.w3.org/2000/svg" xmlns:xlink="http://www.w3.org/1999/xlink">
    <title>共配中心</title>
    <defs>
        <linearGradient x1="50%" y1="0%" x2="50%" y2="100%" id="linearGradient-1">
            <stop stop-color="#B4EC51" offset="0%"></stop>
            <stop stop-color="#429321" offset="100%"></stop>
        </linearGradient>
    </defs>
    <g id="数据大屏" stroke="none" stroke-width="1" fill="none" fill-rule="evenodd">
        <g id="图标" transform="translate(-144.000000, -154.000000)">
            <g id="编组" transform="translate(144.000000, 154.000000)">
                <path d="M8,19 C13.3333333,14.6121853 16,10.9455187 16,8 C16,3.581722 12.418278,0 8,0 C3.581722,0 0,3.581722 0,8 C0,10.9455187 2.66666667,14.6121853 8,19 Z" id="椭圆形" fill="url(#linearGradient-1)"></path>
                <path d="M7.78206078,11.2562654 L7.77779836,11.2562654 C7.3653253,11.3369713 6.99171346,11.5533621 6.71645663,11.87098 C6.55908134,12.0304336 6.3208236,12.0787152 6.11378798,11.9931075 L4.9084507,11.3216843 C4.71765957,11.1874766 4.64971987,10.9362867 4.74684952,10.7242047 C4.8077939,10.5608828 4.84026397,10.388315 4.84284655,10.2140119 C4.84284655,9.85448634 4.69977761,9.50941592 4.44495922,9.25515351 C4.19008089,9.00080285 3.8446977,8.8579707 3.48461824,8.85800747 L3.43217198,8.85800747 C3.35468181,8.85571084 3.28174869,8.82085904 3.23128243,8.76201044 C3.1616368,8.6785205 3.11630787,8.57747609 3.10025946,8.46994224 C3.04233876,8.16047223 3.00881585,7.84693074 3,7.53221059 C3.00871015,7.21623579 3.04225352,6.9011876 3.10044478,6.59040184 C3.13547072,6.41156566 3.24462565,6.20678434 3.43680505,6.20678434 L3.48480356,6.20678434 C3.84563611,6.20677185 4.19165847,6.06329591 4.44662713,5.80797041 C4.70155333,5.55291494 4.84428522,5.20675677 4.8432172,4.84614684 C4.83451457,4.66760667 4.79455888,4.49197727 4.72516679,4.32724395 C4.63389443,4.1142053 4.70507347,3.86635662 4.89547813,3.73421208 L6.16623424,3.03702899 C6.37319819,2.95811913 6.60718972,3.00762849 6.76445514,3.16360422 C7.04768748,3.46856053 7.42111723,3.67482364 7.8300593,3.75218836 C8.23640948,3.67630208 8.60810029,3.47316044 8.89140103,3.17212906 C9.05199403,3.01842601 9.28745225,2.97244939 9.49406966,3.05444929 L10.721275,3.73458273 C10.812083,3.79907494 10.8769459,3.89321875 10.9047442,4.00070578 C10.9357832,4.10895532 10.9280487,4.22464555 10.8828762,4.32779992 C10.8133746,4.49248916 10.7734747,4.66814923 10.7650111,4.84670281 C10.7650111,5.20622838 10.90808,5.55111348 11.1628984,5.80556122 C11.4177768,6.05991188 11.7631599,6.20274403 12.1232394,6.20270726 L12.1756857,6.20270726 C12.3328391,6.20270726 12.4638621,6.35522764 12.5075982,6.59077249 C12.5656041,6.900261 12.5991475,7.21345596 12.608043,7.52831881 C12.5982228,7.84454799 12.563147,8.1594867 12.5031505,8.47012756 C12.4683098,8.6619363 12.3504447,8.85374505 12.1714233,8.85374505 L12.1276872,8.85374505 C11.9892513,8.85374505 11.4334692,8.77516833 10.9935137,8.85819279 C10.8582283,8.88358196 10.6625278,8.98106158 10.4060415,9.15063163 L9.783914,9.15063163 C9.68561285,9.15063163 9.59133786,9.18968161 9.52182846,9.25919101 C9.45231905,9.32870042 9.41326907,9.42297541 9.41326907,9.52127655 L9.41326907,11.9932929 C9.20774646,12.0663099 9.02909561,12.0372143 8.87398071,11.8843233 C8.86527056,11.8756131 8.29762786,11.2564508 7.78206078,11.2564508 L7.78206078,11.2562654 Z M5.59840622,7.52387107 C5.59840622,8.72772578 6.57616752,9.70381917 7.78206078,9.70381917 C8.98813934,9.70381917 9.96571533,8.72772577 9.96571533,7.52368575 C9.96571533,6.31964573 8.98813935,5.34355233 7.78206078,5.34355233 C6.57616753,5.34355233 5.59840622,6.31964573 5.59840622,7.52368575 L5.59840622,7.52387107 Z M7.78206078,6.21549451 C8.50574499,6.21549451 9.09229057,6.80111348 9.09229057,7.52387107 C9.09229057,8.2460727 8.50574498,8.831877 7.78206078,8.831877 C7.05856189,8.831877 6.47183098,8.24625803 6.47183098,7.52368575 C6.47183098,6.80129881 7.05856189,6.21567982 7.78206078,6.21567982 L7.78206078,6.21549451 Z M10.1275018,10.5789118 L12.5366938,10.5789118 C12.7925707,10.5789118 13,10.7863411 13,11.042218 C13,11.2980949 12.7925707,11.5055241 12.5366938,11.5055241 L10.1275018,11.5055241 C9.87162491,11.5055241 9.66419568,11.2980949 9.66419568,11.042218 C9.66419568,10.7863411 9.87162491,10.5789118 10.1275018,10.5789118 L10.1275018,10.5789118 Z M10.1275018,11.6908466 L12.5366938,11.6908466 C12.7022172,11.6908466 12.8551671,11.7791522 12.9379287,11.9224997 C13.0206904,12.0658471 13.0206904,12.2424584 12.9379287,12.3858058 C12.8551671,12.5291533 12.7022172,12.6174589 12.5366938,12.6174589 L10.1275018,12.6174589 C9.87162491,12.6174589 9.66419569,12.4100297 9.66419569,12.1541528 C9.66419569,11.8982758 9.87162491,11.6908466 10.1275018,11.6908466 L10.1275018,11.6908466 Z M10.1275018,9.46697707 L12.5366938,9.46697707 C12.7925707,9.46697707 13,9.6744063 13,9.93028323 C13,10.1861601 12.7925707,10.3935894 12.5366938,10.3935894 L10.1275018,10.3935894 C9.87162491,10.3935894 9.66419568,10.1861601 9.66419568,9.93028323 C9.66419568,9.6744063 9.87162491,9.46697707 10.1275018,9.46697707 L10.1275018,9.46697707 Z" id="形状" fill="#FFFFFF" fill-rule="nonzero"></path>
            </g>
        </g>
    </g>
</svg>