<?xml version="1.0" encoding="UTF-8"?>
<svg width="14px" height="19px" viewBox="0 0 14 19" version="1.1" xmlns="http://www.w3.org/2000/svg" xmlns:xlink="http://www.w3.org/1999/xlink">
    <title>临时停车泊位</title>
    <defs>
        <linearGradient x1="50%" y1="0%" x2="50%" y2="100%" id="linearGradient-1">
            <stop stop-color="#AAA7FF" offset="0%"></stop>
            <stop stop-color="#5241FA" offset="100%"></stop>
        </linearGradient>
    </defs>
    <g id="数据大屏" stroke="none" stroke-width="1" fill="none" fill-rule="evenodd">
        <g id="图标" transform="translate(-389.000000, -154.000000)">
            <g id="编组-6" transform="translate(389.000000, 154.000000)">
                <path d="M7,0 C10.8659932,0 14,3.13400675 14,7 C14,10.6977434 11.1328443,13.7258266 7.50039243,13.9823903 L7.5,18.5 C7.5,18.7761424 7.27614237,19 7,19 C6.72385763,19 6.5,18.7761424 6.5,18.5 L6.50061334,13.9824612 C2.86768497,13.7263856 0,10.6980846 0,7 C0,3.13400675 3.13400675,0 7,0 Z" id="形状结合" fill="url(#linearGradient-1)"></path>
                <g id="编组-5" transform="translate(4.000000, 2.500000)" fill="#FFFFFF" fill-rule="nonzero">
                    <path d="M2.5,8.53737811 L2.85080645,8.53737811 L2.85080645,5.9588299 L2.5,5.9588299 L2.5,8.53737811 Z M3.16935484,8.96587216 L3.54032258,8.96587216 L3.54032258,5.56446371 L3.16935484,5.56446371 L3.16935484,8.96587216 Z M4.72580645,7.6007584 L4.72580645,8.48049837 L4.25806452,8.48049837 L4.25806452,7.6007584 L4.72580645,7.6007584 Z M5.52822581,8.48049837 L5.06854839,8.48049837 L5.06854839,7.6007584 L5.52822581,7.6007584 L5.52822581,8.48049837 Z M3.89516129,9 L4.25806452,9 L4.25806452,8.80660888 L5.52822581,8.80660888 L5.52822581,8.98104009 L5.90725806,8.98104009 L5.90725806,7.26327194 L3.89516129,7.26327194 L3.89516129,9 Z M5.4516129,6.91061755 C5.2983871,6.77031419 5.00403226,6.54279523 4.76209677,6.375948 L4.51612903,6.58071506 C4.75403226,6.76273023 5.05241935,7.01679307 5.19758065,7.16468039 L5.4516129,6.91061755 Z M4.52822581,5.94366197 C4.5766129,5.82231853 4.61693548,5.69339112 4.64919355,5.56825569 L4.28225806,5.5 C4.14919355,6.01950163 3.90322581,6.51625135 3.57258065,6.82719393 C3.66935484,6.87269772 3.83064516,6.97128927 3.90322581,7.02437703 C4.08467742,6.83098592 4.25,6.57692308 4.38709677,6.28494041 L6,6.28494041 L6,5.94366197 L4.52822581,5.94366197 Z" id="形状"></path>
                    <g id="P">
                        <path d="M0,0 L3.2,0 C5.06666667,0 6,0.817927171 6,2.45378151 C6,4.10457516 5.05945946,4.92997199 3.17837838,4.92997199 L1.26486486,4.92997199 L1.26486486,9 L0,9 L0,0 Z M1.26486486,1.12044818 L1.26486486,3.80952381 L3.1027027,3.80952381 C3.65765766,3.80952381 4.06846847,3.70494865 4.33513514,3.49579832 C4.59459459,3.27917834 4.72432432,2.9318394 4.72432432,2.45378151 C4.72432432,1.98319328 4.59099099,1.643324 4.32432432,1.43417367 C4.07207207,1.22502334 3.66486486,1.12044818 3.1027027,1.12044818 L1.26486486,1.12044818 Z" id="形状"></path>
                    </g>
                </g>
            </g>
        </g>
    </g>
</svg>