<?xml version="1.0" encoding="UTF-8"?>
<svg width="16px" height="19px" viewBox="0 0 16 19" version="1.1" xmlns="http://www.w3.org/2000/svg" xmlns:xlink="http://www.w3.org/1999/xlink">
    <title>物流园区</title>
    <defs>
        <linearGradient x1="50%" y1="0%" x2="50%" y2="100%" id="linearGradient-1">
            <stop stop-color="#38E5EB" offset="0%"></stop>
            <stop stop-color="#2490C3" offset="100%"></stop>
        </linearGradient>
    </defs>
    <g id="数据大屏" stroke="none" stroke-width="1" fill="none" fill-rule="evenodd">
        <g id="图标" transform="translate(-65.000000, -154.000000)">
            <g id="编组-2" transform="translate(65.000000, 154.000000)">
                <path d="M8,19 C13.3333333,14.6121853 16,10.9455187 16,8 C16,3.581722 12.418278,0 8,0 C3.581722,0 0,3.581722 0,8 C0,10.9455187 2.66666667,14.6121853 8,19 Z" id="椭圆形" fill="url(#linearGradient-1)"></path>
                <path d="M11.5571429,12.2857143 L11.5571429,4.66071429 C11.5571429,4.5625 11.4767857,4.48214286 11.3785714,4.48214286 L9.41428571,4.48214286 L9.41428571,3.17857143 C9.41428571,3.08035714 9.33392857,3 9.23571429,3 L4.59285714,3 C4.49464286,3 4.41428571,3.08035714 4.41428571,3.17857143 L4.41428571,12.2857143 L3.7,12.2857143 L3.7,13 L12.2714286,13 L12.2714286,12.2857143 L11.5571429,12.2857143 Z M6.55714286,10.8571429 L5.84285714,10.8571429 L5.84285714,10.1428571 L6.55714286,10.1428571 L6.55714286,10.8571429 Z M6.55714286,9.42857143 L5.84285714,9.42857143 L5.84285714,8.71428571 L6.55714286,8.71428571 L6.55714286,9.42857143 Z M6.55714286,8 L5.84285714,8 L5.84285714,7.28571429 L6.55714286,7.28571429 L6.55714286,8 Z M6.55714286,6.57142857 L5.84285714,6.57142857 L5.84285714,5.85714286 L6.55714286,5.85714286 L6.55714286,6.57142857 Z M6.55714286,5.14285714 L5.84285714,5.14285714 L5.84285714,4.42857143 L6.55714286,4.42857143 L6.55714286,5.14285714 Z M7.98571429,10.8571429 L7.27142857,10.8571429 L7.27142857,10.1428571 L7.98571429,10.1428571 L7.98571429,10.8571429 Z M7.98571429,9.42857143 L7.27142857,9.42857143 L7.27142857,8.71428571 L7.98571429,8.71428571 L7.98571429,9.42857143 Z M7.98571429,8 L7.27142857,8 L7.27142857,7.28571429 L7.98571429,7.28571429 L7.98571429,8 Z M7.98571429,6.57142857 L7.27142857,6.57142857 L7.27142857,5.85714286 L7.98571429,5.85714286 L7.98571429,6.57142857 Z M7.98571429,5.14285714 L7.27142857,5.14285714 L7.27142857,4.42857143 L7.98571429,4.42857143 L7.98571429,5.14285714 Z M10.1285714,10.8571429 L9.41428571,10.8571429 L9.41428571,10.1428571 L10.1285714,10.1428571 L10.1285714,10.8571429 Z M10.1285714,9.42857143 L9.41428571,9.42857143 L9.41428571,8.71428571 L10.1285714,8.71428571 L10.1285714,9.42857143 Z M10.1285714,8 L9.41428571,8 L9.41428571,7.28571429 L10.1285714,7.28571429 L10.1285714,8 Z M10.1285714,6.57142857 L9.41428571,6.57142857 L9.41428571,5.85714286 L10.1285714,5.85714286 L10.1285714,6.57142857 Z" id="形状" fill="#FFFFFF" fill-rule="nonzero"></path>
            </g>
        </g>
    </g>
</svg>